<!DOCTYPE svg PUBLIC "-//W3C//DTD SVG 20010904//EN" "http://www.w3.org/TR/2001/REC-SVG-20010904/DTD/svg10.dtd">
<svg version="1.0" xmlns="http://www.w3.org/2000/svg" width="300px" height="300px" viewBox="0 0 3000 3000" preserveAspectRatio="xMidYMid meet">
<g id="layer1" fill="#000000" stroke="none">
 <path d="M874 2552 c-144 -88 -253 -185 -352 -314 -297 -389 -333 -920 -90 -1344 65 -114 117 -180 215 -275 98 -95 136 -124 247 -187 133 -76 261 -121 418 -146 429 -69 887 112 1147 454 180 235 261 471 261 753 0 342 -118 626 -359 868 -102 102 -265 219 -309 222 -22 2 -30 -6 -55 -58 -16 -33 -31 -62 -33 -64 -2 -2 -20 6 -42 17 -21 11 -78 32 -127 48 -87 28 -96 29 -300 29 -204 0 -212 -1 -295 -28 -47 -16 -105 -38 -128 -49 -24 -10 -45 -18 -46 -16 -9 15 -26 58 -32 78 -16 61 -37 63 -120 12z m794 -242 c48 -11 103 -26 122 -33 19 -8 50 -20 68 -26 17 -7 32 -17 32 -23 0 -8 -56 -152 -80 -203 -5 -11 -25 -60 -45 -110 -20 -49 -40 -99 -45 -110 -5 -11 -19 -45 -30 -75 -11 -30 -25 -64 -30 -75 -21 -47 -49 -113 -65 -160 -10 -27 -21 -54 -25 -60 -4 -5 -17 -39 -30 -75 -13 -36 -29 -73 -36 -83 -11 -17 -13 -15 -24 20 -7 21 -16 43 -20 48 -4 6 -17 39 -30 75 -13 36 -26 70 -30 75 -4 6 -15 33 -25 60 -16 47 -44 113 -65 160 -5 11 -19 45 -30 75 -11 30 -25 64 -30 75 -23 52 -41 95 -60 145 -11 30 -25 64 -30 75 -72 157 -73 148 22 182 182 67 326 79 486 43z m-803 -295 c37 -88 70 -169 75 -180 5 -11 39 -92 75 -180 36 -88 70 -169 75 -180 5 -11 39 -92 75 -180 36 -88 70 -169 75 -180 7 -16 121 -289 143 -345 74 -183 95 -225 112 -225 23 0 26 6 100 190 20 50 40 99 45 110 5 11 39 92 75 180 36 88 70 169 75 180 5 11 39 92 75 180 36 88 70 169 75 180 5 11 25 61 45 110 20 50 40 99 45 110 5 11 18 43 30 70 12 28 25 59 30 70 5 11 19 45 30 75 11 30 25 64 30 75 30 65 50 115 50 123 0 15 25 32 36 24 5 -4 30 -32 56 -62 187 -224 269 -516 227 -817 -60 -439 -423 -802 -862 -862 -345 -48 -675 67 -910 314 -46 49 -162 220 -172 255 -4 14 -11 30 -15 35 -9 14 -37 90 -56 155 -19 68 -30 352 -16 430 16 84 31 142 47 177 8 17 15 34 15 38 0 14 55 122 83 165 17 25 55 76 85 113 l54 69 14 -29 c7 -15 43 -100 79 -188z"/>
 </g>

</svg>